# xmcd
#
# Track frame offsets:
#	150
#	20015
#	34824
#	51253
#	66150
#	85613
#	99960
#	117698
#	132585
#	157069
#
# Disc length: 2315 seconds
# Revision: 2
# Processed by: cddbd v1.5.2PL0 Copyright (c) Steve Scherf et al.
# Submitted via: dBpowerAMP V12.0
#
DISCID=8a09090a
DTITLE=Linda McRae - Carve It to the Heart
DYEAR=2007
DGENRE=Country
TTITLE0=This Winding Road
TTITLE1=Carve It to the Heart
TTITLE2=Before the Hereafter
TTITLE3=How Can I Bring Her Back
TTITLE4=Living in the Past with You
TTITLE5=The Little Red Shoes
TTITLE6=Really and Truly
TTITLE7=I'll Watch Your Lovelight Shine
TTITLE8=The L and N Don't Stop Here Anymore
TTITLE9=Some of My Friends
EXTD=
EXTT0=
EXTT1=
EXTT2=
EXTT3=
EXTT4=
EXTT5=
EXTT6=
EXTT7=
EXTT8=
EXTT9=
PLAYORDER=
